<mxfile host="app.diagrams.net" modified="2023-06-14T04:10:08.120Z" agent="Mozilla/5.0 (X11; Ubuntu; Linux x86_64; rv:109.0) Gecko/20100101 Firefox/111.0" etag="0iAq8_0JSKPcInTjyKNo" version="21.3.8" type="github">
  <diagram name="Page-1" id="e56a1550-8fbb-45ad-956c-1786394a9013">
    <mxGraphModel dx="1390" dy="795" grid="1" gridSize="10" guides="1" tooltips="1" connect="1" arrows="1" fold="1" page="1" pageScale="1" pageWidth="1100" pageHeight="850" background="none" math="0" shadow="0">
      <root>
        <mxCell id="0" />
        <mxCell id="1" parent="0" />
        <mxCell id="cnKIC78f5Jdm1wgBPw_o-2" value="&lt;u&gt;User_ID&lt;/u&gt;" style="rounded=0;whiteSpace=wrap;html=1;" parent="1" vertex="1">
          <mxGeometry x="70" y="30" width="110" height="40" as="geometry" />
        </mxCell>
        <mxCell id="cnKIC78f5Jdm1wgBPw_o-3" value="User_Name" style="rounded=0;whiteSpace=wrap;html=1;" parent="1" vertex="1">
          <mxGeometry x="180" y="30" width="110" height="40" as="geometry" />
        </mxCell>
        <mxCell id="cnKIC78f5Jdm1wgBPw_o-4" value="Password" style="rounded=0;whiteSpace=wrap;html=1;" parent="1" vertex="1">
          <mxGeometry x="290" y="30" width="110" height="40" as="geometry" />
        </mxCell>
        <mxCell id="cnKIC78f5Jdm1wgBPw_o-7" value="Account_Type" style="rounded=0;whiteSpace=wrap;html=1;" parent="1" vertex="1">
          <mxGeometry x="400" y="30" width="110" height="40" as="geometry" />
        </mxCell>
        <mxCell id="cnKIC78f5Jdm1wgBPw_o-8" value="Account_Status" style="rounded=0;whiteSpace=wrap;html=1;" parent="1" vertex="1">
          <mxGeometry x="510" y="30" width="110" height="40" as="geometry" />
        </mxCell>
        <mxCell id="mY9vQENjWqsLD0lPLEkr-1" value="&lt;b style=&quot;font-size: 14px;&quot;&gt;AUTHENTICATION&lt;br&gt;&lt;/b&gt;" style="text;html=1;align=center;verticalAlign=middle;resizable=0;points=[];autosize=1;strokeColor=none;fillColor=none;" vertex="1" parent="1">
          <mxGeometry x="60" width="170" height="30" as="geometry" />
        </mxCell>
        <mxCell id="mY9vQENjWqsLD0lPLEkr-72" style="edgeStyle=orthogonalEdgeStyle;rounded=0;orthogonalLoop=1;jettySize=auto;html=1;exitX=0.5;exitY=1;exitDx=0;exitDy=0;entryX=0.5;entryY=1;entryDx=0;entryDy=0;" edge="1" parent="1" source="mY9vQENjWqsLD0lPLEkr-2" target="cnKIC78f5Jdm1wgBPw_o-2">
          <mxGeometry relative="1" as="geometry" />
        </mxCell>
        <mxCell id="mY9vQENjWqsLD0lPLEkr-2" value="&lt;p id=&quot;docs-internal-guid-e298b9b5-7fff-69ab-5bfc-5583fb6fc646&quot; style=&quot;line-height:1.2;margin-top:0pt;margin-bottom:0pt;&quot; dir=&quot;ltr&quot;&gt;&lt;u&gt;Staff ID&lt;/u&gt;&lt;/p&gt;" style="rounded=0;whiteSpace=wrap;html=1;" vertex="1" parent="1">
          <mxGeometry x="70" y="130" width="110" height="40" as="geometry" />
        </mxCell>
        <mxCell id="mY9vQENjWqsLD0lPLEkr-3" value="Name" style="rounded=0;whiteSpace=wrap;html=1;" vertex="1" parent="1">
          <mxGeometry x="180" y="130" width="110" height="40" as="geometry" />
        </mxCell>
        <mxCell id="mY9vQENjWqsLD0lPLEkr-4" value="Phone number" style="rounded=0;whiteSpace=wrap;html=1;" vertex="1" parent="1">
          <mxGeometry x="290" y="130" width="110" height="40" as="geometry" />
        </mxCell>
        <mxCell id="mY9vQENjWqsLD0lPLEkr-5" value="&lt;p style=&quot;line-height:1.2;margin-top:0pt;margin-bottom:0pt;&quot; dir=&quot;ltr&quot;&gt;Email ID&lt;/p&gt;" style="rounded=0;whiteSpace=wrap;html=1;" vertex="1" parent="1">
          <mxGeometry x="400" y="130" width="110" height="40" as="geometry" />
        </mxCell>
        <mxCell id="mY9vQENjWqsLD0lPLEkr-6" value="Position" style="rounded=0;whiteSpace=wrap;html=1;" vertex="1" parent="1">
          <mxGeometry x="510" y="130" width="110" height="40" as="geometry" />
        </mxCell>
        <mxCell id="mY9vQENjWqsLD0lPLEkr-7" value="&lt;b&gt;STAFF&lt;/b&gt;" style="text;html=1;align=center;verticalAlign=middle;resizable=0;points=[];autosize=1;strokeColor=none;fillColor=none;" vertex="1" parent="1">
          <mxGeometry x="60" y="100" width="70" height="30" as="geometry" />
        </mxCell>
        <mxCell id="mY9vQENjWqsLD0lPLEkr-8" value="Salary" style="rounded=0;whiteSpace=wrap;html=1;" vertex="1" parent="1">
          <mxGeometry x="620" y="130" width="110" height="40" as="geometry" />
        </mxCell>
        <mxCell id="mY9vQENjWqsLD0lPLEkr-9" value="&lt;p style=&quot;line-height:1.2;margin-top:0pt;margin-bottom:0pt;&quot; dir=&quot;ltr&quot;&gt;Date of joining&lt;/p&gt;" style="rounded=0;whiteSpace=wrap;html=1;" vertex="1" parent="1">
          <mxGeometry x="720" y="130" width="110" height="40" as="geometry" />
        </mxCell>
        <mxCell id="mY9vQENjWqsLD0lPLEkr-10" value="&lt;p id=&quot;docs-internal-guid-6e484562-7fff-98b6-bade-1f2c4b49021d&quot; style=&quot;line-height:1.2;margin-top:0pt;margin-bottom:0pt;&quot; dir=&quot;ltr&quot;&gt;&lt;br&gt;&lt;/p&gt;&lt;p style=&quot;line-height:1.2;margin-top:0pt;margin-bottom:0pt;&quot; dir=&quot;ltr&quot;&gt;&lt;br&gt;&lt;/p&gt;&lt;p style=&quot;line-height:1.2;margin-top:0pt;margin-bottom:0pt;&quot; dir=&quot;ltr&quot;&gt;&lt;br&gt;&lt;/p&gt;&lt;p style=&quot;line-height:1.2;margin-top:0pt;margin-bottom:0pt;&quot; dir=&quot;ltr&quot;&gt;&lt;br&gt;&lt;/p&gt;&lt;p style=&quot;line-height:1.2;margin-top:0pt;margin-bottom:0pt;&quot; dir=&quot;ltr&quot;&gt;&lt;br&gt;&lt;/p&gt;&lt;p style=&quot;line-height:1.2;margin-top:0pt;margin-bottom:0pt;&quot; dir=&quot;ltr&quot;&gt;&lt;br&gt;&lt;/p&gt;" style="text;html=1;align=center;verticalAlign=middle;resizable=0;points=[];autosize=1;strokeColor=none;fillColor=none;" vertex="1" parent="1">
          <mxGeometry x="162" y="433" width="20" height="100" as="geometry" />
        </mxCell>
        <mxCell id="mY9vQENjWqsLD0lPLEkr-73" style="edgeStyle=orthogonalEdgeStyle;rounded=0;orthogonalLoop=1;jettySize=auto;html=1;exitX=0.5;exitY=1;exitDx=0;exitDy=0;entryX=0.5;entryY=1;entryDx=0;entryDy=0;" edge="1" parent="1" source="mY9vQENjWqsLD0lPLEkr-11" target="cnKIC78f5Jdm1wgBPw_o-2">
          <mxGeometry relative="1" as="geometry">
            <Array as="points">
              <mxPoint x="125" y="300" />
              <mxPoint x="40" y="300" />
              <mxPoint x="40" y="90" />
              <mxPoint x="125" y="90" />
            </Array>
          </mxGeometry>
        </mxCell>
        <mxCell id="mY9vQENjWqsLD0lPLEkr-74" style="edgeStyle=orthogonalEdgeStyle;rounded=0;orthogonalLoop=1;jettySize=auto;html=1;exitX=0.5;exitY=1;exitDx=0;exitDy=0;entryX=0.5;entryY=1;entryDx=0;entryDy=0;" edge="1" parent="1" source="mY9vQENjWqsLD0lPLEkr-11" target="mY9vQENjWqsLD0lPLEkr-19">
          <mxGeometry relative="1" as="geometry">
            <Array as="points">
              <mxPoint x="125" y="310" />
              <mxPoint x="50" y="310" />
              <mxPoint x="50" y="400" />
              <mxPoint x="125" y="400" />
            </Array>
          </mxGeometry>
        </mxCell>
        <mxCell id="mY9vQENjWqsLD0lPLEkr-11" value="&lt;p id=&quot;docs-internal-guid-6e484562-7fff-98b6-bade-1f2c4b49021d&quot; style=&quot;line-height:1.2;margin-top:0pt;margin-bottom:0pt;&quot; dir=&quot;ltr&quot;&gt;&lt;u&gt;Member ID&lt;/u&gt;&lt;/p&gt;&lt;p id=&quot;docs-internal-guid-e298b9b5-7fff-69ab-5bfc-5583fb6fc646&quot; style=&quot;line-height:1.2;margin-top:0pt;margin-bottom:0pt;&quot; dir=&quot;ltr&quot;&gt;&lt;/p&gt;" style="rounded=0;whiteSpace=wrap;html=1;" vertex="1" parent="1">
          <mxGeometry x="70" y="240" width="110" height="40" as="geometry" />
        </mxCell>
        <mxCell id="mY9vQENjWqsLD0lPLEkr-12" value="&lt;b&gt;MEMBER&lt;/b&gt;" style="text;html=1;align=center;verticalAlign=middle;resizable=0;points=[];autosize=1;strokeColor=none;fillColor=none;" vertex="1" parent="1">
          <mxGeometry x="60" y="210" width="90" height="30" as="geometry" />
        </mxCell>
        <mxCell id="mY9vQENjWqsLD0lPLEkr-13" value="&lt;p style=&quot;line-height:1.2;margin-top:0pt;margin-bottom:0pt;&quot; dir=&quot;ltr&quot;&gt;Name&lt;/p&gt;&lt;p id=&quot;docs-internal-guid-6e484562-7fff-98b6-bade-1f2c4b49021d&quot; style=&quot;line-height:1.2;margin-top:0pt;margin-bottom:0pt;&quot; dir=&quot;ltr&quot;&gt;&lt;/p&gt;&lt;p id=&quot;docs-internal-guid-e298b9b5-7fff-69ab-5bfc-5583fb6fc646&quot; style=&quot;line-height:1.2;margin-top:0pt;margin-bottom:0pt;&quot; dir=&quot;ltr&quot;&gt;&lt;/p&gt;" style="rounded=0;whiteSpace=wrap;html=1;" vertex="1" parent="1">
          <mxGeometry x="180" y="240" width="110" height="40" as="geometry" />
        </mxCell>
        <mxCell id="mY9vQENjWqsLD0lPLEkr-14" value="&lt;p style=&quot;line-height:1.2;margin-top:0pt;margin-bottom:0pt;&quot; dir=&quot;ltr&quot;&gt;Mail ID&lt;/p&gt;" style="rounded=0;whiteSpace=wrap;html=1;" vertex="1" parent="1">
          <mxGeometry x="510" y="240" width="110" height="40" as="geometry" />
        </mxCell>
        <mxCell id="mY9vQENjWqsLD0lPLEkr-15" value="&lt;p style=&quot;line-height:1.2;margin-top:0pt;margin-bottom:0pt;&quot; dir=&quot;ltr&quot;&gt;Membership status&lt;/p&gt;" style="rounded=0;whiteSpace=wrap;html=1;" vertex="1" parent="1">
          <mxGeometry x="620" y="240" width="110" height="40" as="geometry" />
        </mxCell>
        <mxCell id="mY9vQENjWqsLD0lPLEkr-16" value="&lt;p style=&quot;line-height:1.2;margin-top:0pt;margin-bottom:0pt;&quot; dir=&quot;ltr&quot;&gt;DOB&lt;/p&gt;" style="rounded=0;whiteSpace=wrap;html=1;" vertex="1" parent="1">
          <mxGeometry x="290" y="240" width="110" height="40" as="geometry" />
        </mxCell>
        <mxCell id="mY9vQENjWqsLD0lPLEkr-17" value="&lt;p style=&quot;line-height:1.2;margin-top:0pt;margin-bottom:0pt;&quot; dir=&quot;ltr&quot;&gt;Phone Number&lt;/p&gt;&lt;p id=&quot;docs-internal-guid-e298b9b5-7fff-69ab-5bfc-5583fb6fc646&quot; style=&quot;line-height:1.2;margin-top:0pt;margin-bottom:0pt;&quot; dir=&quot;ltr&quot;&gt;&lt;/p&gt;" style="rounded=0;whiteSpace=wrap;html=1;" vertex="1" parent="1">
          <mxGeometry x="400" y="240" width="110" height="40" as="geometry" />
        </mxCell>
        <mxCell id="mY9vQENjWqsLD0lPLEkr-19" value="&lt;p id=&quot;docs-internal-guid-6e484562-7fff-98b6-bade-1f2c4b49021d&quot; style=&quot;line-height:1.2;margin-top:0pt;margin-bottom:0pt;&quot; dir=&quot;ltr&quot;&gt;&lt;u&gt;Member ID&lt;/u&gt;&lt;/p&gt;&lt;p id=&quot;docs-internal-guid-e298b9b5-7fff-69ab-5bfc-5583fb6fc646&quot; style=&quot;line-height:1.2;margin-top:0pt;margin-bottom:0pt;&quot; dir=&quot;ltr&quot;&gt;&lt;/p&gt;" style="rounded=0;whiteSpace=wrap;html=1;" vertex="1" parent="1">
          <mxGeometry x="70" y="340" width="110" height="40" as="geometry" />
        </mxCell>
        <mxCell id="mY9vQENjWqsLD0lPLEkr-20" value="&lt;b&gt;ADDRESS&lt;/b&gt;" style="text;html=1;align=center;verticalAlign=middle;resizable=0;points=[];autosize=1;strokeColor=none;fillColor=none;" vertex="1" parent="1">
          <mxGeometry x="60" y="310" width="90" height="30" as="geometry" />
        </mxCell>
        <mxCell id="mY9vQENjWqsLD0lPLEkr-21" value="Street" style="rounded=0;whiteSpace=wrap;html=1;" vertex="1" parent="1">
          <mxGeometry x="180" y="340" width="110" height="40" as="geometry" />
        </mxCell>
        <mxCell id="mY9vQENjWqsLD0lPLEkr-22" value="City" style="rounded=0;whiteSpace=wrap;html=1;" vertex="1" parent="1">
          <mxGeometry x="290" y="340" width="110" height="40" as="geometry" />
        </mxCell>
        <mxCell id="mY9vQENjWqsLD0lPLEkr-23" value="State" style="rounded=0;whiteSpace=wrap;html=1;" vertex="1" parent="1">
          <mxGeometry x="400" y="340" width="110" height="40" as="geometry" />
        </mxCell>
        <mxCell id="mY9vQENjWqsLD0lPLEkr-24" value="Pincode" style="rounded=0;whiteSpace=wrap;html=1;" vertex="1" parent="1">
          <mxGeometry x="510" y="340" width="110" height="40" as="geometry" />
        </mxCell>
        <mxCell id="mY9vQENjWqsLD0lPLEkr-26" value="&lt;p id=&quot;docs-internal-guid-ba5a6479-7fff-9358-47d4-42ce3e47d482&quot; style=&quot;line-height:1.2;margin-top:0pt;margin-bottom:0pt;&quot; dir=&quot;ltr&quot;&gt;&lt;br&gt;&lt;/p&gt;&lt;p style=&quot;line-height:1.2;margin-top:0pt;margin-bottom:0pt;&quot; dir=&quot;ltr&quot;&gt;&lt;br&gt;&lt;/p&gt;&lt;p style=&quot;line-height:1.2;margin-top:0pt;margin-bottom:0pt;&quot; dir=&quot;ltr&quot;&gt;&lt;br&gt;&lt;/p&gt;&lt;p style=&quot;line-height:1.2;margin-top:0pt;margin-bottom:0pt;&quot; dir=&quot;ltr&quot;&gt;&lt;br&gt;&lt;/p&gt;&lt;p style=&quot;line-height:1.2;margin-top:0pt;margin-bottom:0pt;&quot; dir=&quot;ltr&quot;&gt;&lt;br&gt;&lt;/p&gt;&lt;p style=&quot;line-height:1.2;margin-top:0pt;margin-bottom:0pt;&quot; dir=&quot;ltr&quot;&gt;&lt;br&gt;&lt;/p&gt;" style="text;html=1;align=center;verticalAlign=middle;resizable=0;points=[];autosize=1;strokeColor=none;fillColor=none;" vertex="1" parent="1">
          <mxGeometry x="132" y="543" width="20" height="100" as="geometry" />
        </mxCell>
        <mxCell id="mY9vQENjWqsLD0lPLEkr-27" value="&lt;p id=&quot;docs-internal-guid-ba5a6479-7fff-9358-47d4-42ce3e47d482&quot; style=&quot;line-height:1.2;margin-top:0pt;margin-bottom:0pt;&quot; dir=&quot;ltr&quot;&gt;&lt;u&gt;Transaction ID&lt;/u&gt;&lt;/p&gt;&lt;p id=&quot;docs-internal-guid-6e484562-7fff-98b6-bade-1f2c4b49021d&quot; style=&quot;line-height:1.2;margin-top:0pt;margin-bottom:0pt;&quot; dir=&quot;ltr&quot;&gt;&lt;/p&gt;&lt;p id=&quot;docs-internal-guid-e298b9b5-7fff-69ab-5bfc-5583fb6fc646&quot; style=&quot;line-height:1.2;margin-top:0pt;margin-bottom:0pt;&quot; dir=&quot;ltr&quot;&gt;&lt;/p&gt;" style="rounded=0;whiteSpace=wrap;html=1;" vertex="1" parent="1">
          <mxGeometry x="70" y="450" width="110" height="40" as="geometry" />
        </mxCell>
        <mxCell id="mY9vQENjWqsLD0lPLEkr-28" value="&lt;b&gt;STAFF TRANSACTION&lt;br&gt;&lt;/b&gt;" style="text;html=1;align=center;verticalAlign=middle;resizable=0;points=[];autosize=1;strokeColor=none;fillColor=none;" vertex="1" parent="1">
          <mxGeometry x="60" y="420" width="170" height="30" as="geometry" />
        </mxCell>
        <mxCell id="mY9vQENjWqsLD0lPLEkr-78" style="edgeStyle=orthogonalEdgeStyle;rounded=0;orthogonalLoop=1;jettySize=auto;html=1;exitX=0.5;exitY=1;exitDx=0;exitDy=0;entryX=0.5;entryY=1;entryDx=0;entryDy=0;" edge="1" parent="1" source="mY9vQENjWqsLD0lPLEkr-29" target="mY9vQENjWqsLD0lPLEkr-57">
          <mxGeometry relative="1" as="geometry">
            <mxPoint x="50" y="800" as="targetPoint" />
            <Array as="points">
              <mxPoint x="235" y="500" />
              <mxPoint x="40" y="500" />
              <mxPoint x="40" y="836" />
              <mxPoint x="125" y="836" />
            </Array>
          </mxGeometry>
        </mxCell>
        <mxCell id="mY9vQENjWqsLD0lPLEkr-29" value="&lt;p style=&quot;line-height:1.2;margin-top:0pt;margin-bottom:0pt;&quot; dir=&quot;ltr&quot;&gt;Book ID&lt;/p&gt;&lt;p style=&quot;line-height:1.2;margin-top:0pt;margin-bottom:0pt;&quot; dir=&quot;ltr&quot;&gt;&lt;/p&gt;&lt;p id=&quot;docs-internal-guid-6e484562-7fff-98b6-bade-1f2c4b49021d&quot; style=&quot;line-height:1.2;margin-top:0pt;margin-bottom:0pt;&quot; dir=&quot;ltr&quot;&gt;&lt;/p&gt;&lt;p id=&quot;docs-internal-guid-e298b9b5-7fff-69ab-5bfc-5583fb6fc646&quot; style=&quot;line-height:1.2;margin-top:0pt;margin-bottom:0pt;&quot; dir=&quot;ltr&quot;&gt;&lt;/p&gt;" style="rounded=0;whiteSpace=wrap;html=1;" vertex="1" parent="1">
          <mxGeometry x="180" y="450" width="110" height="40" as="geometry" />
        </mxCell>
        <mxCell id="mY9vQENjWqsLD0lPLEkr-30" value="&lt;p style=&quot;line-height:1.2;margin-top:0pt;margin-bottom:0pt;&quot; dir=&quot;ltr&quot;&gt;Transaction type&lt;/p&gt;&lt;p style=&quot;line-height:1.2;margin-top:0pt;margin-bottom:0pt;&quot; dir=&quot;ltr&quot;&gt;&lt;/p&gt;" style="rounded=0;whiteSpace=wrap;html=1;" vertex="1" parent="1">
          <mxGeometry x="510" y="450" width="110" height="40" as="geometry" />
        </mxCell>
        <mxCell id="mY9vQENjWqsLD0lPLEkr-31" value="&lt;p style=&quot;line-height:1.2;margin-top:0pt;margin-bottom:0pt;&quot; dir=&quot;ltr&quot;&gt;Transaction details&lt;/p&gt;&lt;p style=&quot;line-height:1.2;margin-top:0pt;margin-bottom:0pt;&quot; dir=&quot;ltr&quot;&gt;&lt;/p&gt;" style="rounded=0;whiteSpace=wrap;html=1;" vertex="1" parent="1">
          <mxGeometry x="620" y="450" width="110" height="40" as="geometry" />
        </mxCell>
        <mxCell id="mY9vQENjWqsLD0lPLEkr-77" style="edgeStyle=orthogonalEdgeStyle;rounded=0;orthogonalLoop=1;jettySize=auto;html=1;exitX=0.5;exitY=1;exitDx=0;exitDy=0;entryX=0.75;entryY=1;entryDx=0;entryDy=0;" edge="1" parent="1" source="mY9vQENjWqsLD0lPLEkr-32" target="mY9vQENjWqsLD0lPLEkr-2">
          <mxGeometry relative="1" as="geometry">
            <Array as="points">
              <mxPoint x="345" y="510" />
              <mxPoint x="60" y="510" />
              <mxPoint x="60" y="200" />
              <mxPoint x="153" y="200" />
            </Array>
          </mxGeometry>
        </mxCell>
        <mxCell id="mY9vQENjWqsLD0lPLEkr-32" value="&lt;p style=&quot;line-height:1.2;margin-top:0pt;margin-bottom:0pt;&quot; dir=&quot;ltr&quot;&gt;Staff ID&lt;/p&gt;&lt;p style=&quot;line-height:1.2;margin-top:0pt;margin-bottom:0pt;&quot; dir=&quot;ltr&quot;&gt;&lt;/p&gt;" style="rounded=0;whiteSpace=wrap;html=1;" vertex="1" parent="1">
          <mxGeometry x="290" y="450" width="110" height="40" as="geometry" />
        </mxCell>
        <mxCell id="mY9vQENjWqsLD0lPLEkr-33" value="&lt;p style=&quot;line-height:1.2;margin-top:0pt;margin-bottom:0pt;&quot; dir=&quot;ltr&quot;&gt;Transaction date&lt;/p&gt;&lt;p style=&quot;line-height:1.2;margin-top:0pt;margin-bottom:0pt;&quot; dir=&quot;ltr&quot;&gt;&lt;/p&gt;&lt;p id=&quot;docs-internal-guid-e298b9b5-7fff-69ab-5bfc-5583fb6fc646&quot; style=&quot;line-height:1.2;margin-top:0pt;margin-bottom:0pt;&quot; dir=&quot;ltr&quot;&gt;&lt;/p&gt;" style="rounded=0;whiteSpace=wrap;html=1;" vertex="1" parent="1">
          <mxGeometry x="400" y="450" width="110" height="40" as="geometry" />
        </mxCell>
        <mxCell id="mY9vQENjWqsLD0lPLEkr-35" value="&lt;p id=&quot;docs-internal-guid-6e484562-7fff-98b6-bade-1f2c4b49021d&quot; style=&quot;line-height:1.2;margin-top:0pt;margin-bottom:0pt;&quot; dir=&quot;ltr&quot;&gt;&lt;br&gt;&lt;/p&gt;&lt;p style=&quot;line-height:1.2;margin-top:0pt;margin-bottom:0pt;&quot; dir=&quot;ltr&quot;&gt;&lt;br&gt;&lt;/p&gt;&lt;p style=&quot;line-height:1.2;margin-top:0pt;margin-bottom:0pt;&quot; dir=&quot;ltr&quot;&gt;&lt;br&gt;&lt;/p&gt;&lt;p style=&quot;line-height:1.2;margin-top:0pt;margin-bottom:0pt;&quot; dir=&quot;ltr&quot;&gt;&lt;br&gt;&lt;/p&gt;&lt;p style=&quot;line-height:1.2;margin-top:0pt;margin-bottom:0pt;&quot; dir=&quot;ltr&quot;&gt;&lt;br&gt;&lt;/p&gt;&lt;p style=&quot;line-height:1.2;margin-top:0pt;margin-bottom:0pt;&quot; dir=&quot;ltr&quot;&gt;&lt;br&gt;&lt;/p&gt;" style="text;html=1;align=center;verticalAlign=middle;resizable=0;points=[];autosize=1;strokeColor=none;fillColor=none;" vertex="1" parent="1">
          <mxGeometry x="162" y="543" width="20" height="100" as="geometry" />
        </mxCell>
        <mxCell id="mY9vQENjWqsLD0lPLEkr-80" style="edgeStyle=orthogonalEdgeStyle;rounded=0;orthogonalLoop=1;jettySize=auto;html=1;exitX=0.5;exitY=1;exitDx=0;exitDy=0;entryX=0.75;entryY=1;entryDx=0;entryDy=0;" edge="1" parent="1" source="mY9vQENjWqsLD0lPLEkr-36" target="mY9vQENjWqsLD0lPLEkr-2">
          <mxGeometry relative="1" as="geometry">
            <Array as="points">
              <mxPoint x="125" y="620" />
              <mxPoint x="30" y="620" />
              <mxPoint x="30" y="170" />
            </Array>
          </mxGeometry>
        </mxCell>
        <mxCell id="mY9vQENjWqsLD0lPLEkr-36" value="&lt;p id=&quot;docs-internal-guid-36bd7458-7fff-d5e5-0051-9d3a1794b8cb&quot; style=&quot;line-height:1.2;margin-top:0pt;margin-bottom:0pt;&quot; dir=&quot;ltr&quot;&gt;&lt;u&gt;Staff ID&lt;/u&gt;&lt;/p&gt;&lt;p id=&quot;docs-internal-guid-ba5a6479-7fff-9358-47d4-42ce3e47d482&quot; style=&quot;line-height:1.2;margin-top:0pt;margin-bottom:0pt;&quot; dir=&quot;ltr&quot;&gt;&lt;/p&gt;&lt;p id=&quot;docs-internal-guid-6e484562-7fff-98b6-bade-1f2c4b49021d&quot; style=&quot;line-height:1.2;margin-top:0pt;margin-bottom:0pt;&quot; dir=&quot;ltr&quot;&gt;&lt;/p&gt;&lt;p id=&quot;docs-internal-guid-e298b9b5-7fff-69ab-5bfc-5583fb6fc646&quot; style=&quot;line-height:1.2;margin-top:0pt;margin-bottom:0pt;&quot; dir=&quot;ltr&quot;&gt;&lt;/p&gt;" style="rounded=0;whiteSpace=wrap;html=1;" vertex="1" parent="1">
          <mxGeometry x="70" y="560" width="110" height="40" as="geometry" />
        </mxCell>
        <mxCell id="mY9vQENjWqsLD0lPLEkr-37" value="&lt;b&gt;MEMBER TRANSACTION&lt;br&gt;&lt;/b&gt;" style="text;html=1;align=center;verticalAlign=middle;resizable=0;points=[];autosize=1;strokeColor=none;fillColor=none;" vertex="1" parent="1">
          <mxGeometry x="60" y="530" width="200" height="30" as="geometry" />
        </mxCell>
        <mxCell id="mY9vQENjWqsLD0lPLEkr-81" style="edgeStyle=orthogonalEdgeStyle;rounded=0;orthogonalLoop=1;jettySize=auto;html=1;exitX=0.5;exitY=1;exitDx=0;exitDy=0;entryX=0.75;entryY=1;entryDx=0;entryDy=0;" edge="1" parent="1" source="mY9vQENjWqsLD0lPLEkr-38" target="mY9vQENjWqsLD0lPLEkr-11">
          <mxGeometry relative="1" as="geometry">
            <Array as="points">
              <mxPoint x="235" y="620" />
              <mxPoint x="780" y="620" />
              <mxPoint x="780" y="310" />
              <mxPoint x="153" y="310" />
            </Array>
          </mxGeometry>
        </mxCell>
        <mxCell id="mY9vQENjWqsLD0lPLEkr-38" value="&lt;p style=&quot;line-height:1.2;margin-top:0pt;margin-bottom:0pt;&quot; dir=&quot;ltr&quot;&gt;&lt;u&gt;Member ID&lt;/u&gt;&lt;/p&gt;&lt;p style=&quot;line-height:1.2;margin-top:0pt;margin-bottom:0pt;&quot; dir=&quot;ltr&quot;&gt;&lt;/p&gt;&lt;p style=&quot;line-height:1.2;margin-top:0pt;margin-bottom:0pt;&quot; dir=&quot;ltr&quot;&gt;&lt;/p&gt;&lt;p id=&quot;docs-internal-guid-6e484562-7fff-98b6-bade-1f2c4b49021d&quot; style=&quot;line-height:1.2;margin-top:0pt;margin-bottom:0pt;&quot; dir=&quot;ltr&quot;&gt;&lt;/p&gt;&lt;p id=&quot;docs-internal-guid-e298b9b5-7fff-69ab-5bfc-5583fb6fc646&quot; style=&quot;line-height:1.2;margin-top:0pt;margin-bottom:0pt;&quot; dir=&quot;ltr&quot;&gt;&lt;/p&gt;" style="rounded=0;whiteSpace=wrap;html=1;" vertex="1" parent="1">
          <mxGeometry x="180" y="560" width="110" height="40" as="geometry" />
        </mxCell>
        <mxCell id="mY9vQENjWqsLD0lPLEkr-39" value="&lt;p style=&quot;line-height:1.2;margin-top:0pt;margin-bottom:0pt;&quot; dir=&quot;ltr&quot;&gt;Due date &lt;br&gt;&lt;/p&gt;" style="rounded=0;whiteSpace=wrap;html=1;" vertex="1" parent="1">
          <mxGeometry x="510" y="560" width="110" height="40" as="geometry" />
        </mxCell>
        <mxCell id="mY9vQENjWqsLD0lPLEkr-40" value="&lt;p style=&quot;line-height:1.2;margin-top:0pt;margin-bottom:0pt;&quot; dir=&quot;ltr&quot;&gt;Fine&lt;/p&gt;&lt;p style=&quot;line-height:1.2;margin-top:0pt;margin-bottom:0pt;&quot; dir=&quot;ltr&quot;&gt;&lt;/p&gt;&lt;p style=&quot;line-height:1.2;margin-top:0pt;margin-bottom:0pt;&quot; dir=&quot;ltr&quot;&gt;&lt;/p&gt;" style="rounded=0;whiteSpace=wrap;html=1;" vertex="1" parent="1">
          <mxGeometry x="620" y="560" width="110" height="40" as="geometry" />
        </mxCell>
        <mxCell id="mY9vQENjWqsLD0lPLEkr-82" style="edgeStyle=orthogonalEdgeStyle;rounded=0;orthogonalLoop=1;jettySize=auto;html=1;exitX=0.5;exitY=1;exitDx=0;exitDy=0;entryX=0.5;entryY=1;entryDx=0;entryDy=0;" edge="1" parent="1" source="mY9vQENjWqsLD0lPLEkr-41" target="mY9vQENjWqsLD0lPLEkr-57">
          <mxGeometry relative="1" as="geometry">
            <Array as="points">
              <mxPoint x="345" y="630" />
              <mxPoint x="60" y="630" />
              <mxPoint x="60" y="836" />
              <mxPoint x="125" y="836" />
            </Array>
          </mxGeometry>
        </mxCell>
        <mxCell id="mY9vQENjWqsLD0lPLEkr-41" value="&lt;p style=&quot;line-height:1.2;margin-top:0pt;margin-bottom:0pt;&quot; dir=&quot;ltr&quot;&gt;&lt;u&gt;Book ID&lt;/u&gt;&lt;/p&gt;" style="rounded=0;whiteSpace=wrap;html=1;" vertex="1" parent="1">
          <mxGeometry x="290" y="560" width="110" height="40" as="geometry" />
        </mxCell>
        <mxCell id="mY9vQENjWqsLD0lPLEkr-42" value="&lt;p style=&quot;line-height:1.2;margin-top:0pt;margin-bottom:0pt;&quot; dir=&quot;ltr&quot;&gt;Transaction date&lt;/p&gt;&lt;p style=&quot;line-height:1.2;margin-top:0pt;margin-bottom:0pt;&quot; dir=&quot;ltr&quot;&gt;&lt;/p&gt;&lt;p id=&quot;docs-internal-guid-e298b9b5-7fff-69ab-5bfc-5583fb6fc646&quot; style=&quot;line-height:1.2;margin-top:0pt;margin-bottom:0pt;&quot; dir=&quot;ltr&quot;&gt;&lt;/p&gt;" style="rounded=0;whiteSpace=wrap;html=1;" vertex="1" parent="1">
          <mxGeometry x="400" y="560" width="110" height="40" as="geometry" />
        </mxCell>
        <mxCell id="mY9vQENjWqsLD0lPLEkr-50" value="&lt;u&gt;Transaction ID&lt;/u&gt;" style="rounded=0;whiteSpace=wrap;html=1;" vertex="1" parent="1">
          <mxGeometry x="70" y="673" width="110" height="40" as="geometry" />
        </mxCell>
        <mxCell id="mY9vQENjWqsLD0lPLEkr-51" value="&lt;b&gt;TRANSACTION RECORD&lt;/b&gt;" style="text;html=1;align=center;verticalAlign=middle;resizable=0;points=[];autosize=1;strokeColor=none;fillColor=none;" vertex="1" parent="1">
          <mxGeometry x="65" y="643" width="190" height="30" as="geometry" />
        </mxCell>
        <mxCell id="mY9vQENjWqsLD0lPLEkr-84" style="edgeStyle=orthogonalEdgeStyle;rounded=0;orthogonalLoop=1;jettySize=auto;html=1;exitX=0.5;exitY=1;exitDx=0;exitDy=0;entryX=0.75;entryY=1;entryDx=0;entryDy=0;" edge="1" parent="1" source="mY9vQENjWqsLD0lPLEkr-52" target="mY9vQENjWqsLD0lPLEkr-11">
          <mxGeometry relative="1" as="geometry">
            <Array as="points">
              <mxPoint x="235" y="733" />
              <mxPoint x="800" y="733" />
              <mxPoint x="800" y="290" />
              <mxPoint x="153" y="290" />
            </Array>
          </mxGeometry>
        </mxCell>
        <mxCell id="mY9vQENjWqsLD0lPLEkr-52" value="&lt;p style=&quot;line-height:1.2;margin-top:0pt;margin-bottom:0pt;&quot; dir=&quot;ltr&quot;&gt;Member ID&lt;/p&gt;&lt;p style=&quot;line-height:1.2;margin-top:0pt;margin-bottom:0pt;&quot; dir=&quot;ltr&quot;&gt;&lt;/p&gt;&lt;p style=&quot;line-height:1.2;margin-top:0pt;margin-bottom:0pt;&quot; dir=&quot;ltr&quot;&gt;&lt;/p&gt;&lt;p id=&quot;docs-internal-guid-6e484562-7fff-98b6-bade-1f2c4b49021d&quot; style=&quot;line-height:1.2;margin-top:0pt;margin-bottom:0pt;&quot; dir=&quot;ltr&quot;&gt;&lt;/p&gt;&lt;p id=&quot;docs-internal-guid-e298b9b5-7fff-69ab-5bfc-5583fb6fc646&quot; style=&quot;line-height:1.2;margin-top:0pt;margin-bottom:0pt;&quot; dir=&quot;ltr&quot;&gt;&lt;/p&gt;" style="rounded=0;whiteSpace=wrap;html=1;" vertex="1" parent="1">
          <mxGeometry x="180" y="673" width="110" height="40" as="geometry" />
        </mxCell>
        <mxCell id="mY9vQENjWqsLD0lPLEkr-53" value="Type" style="rounded=0;whiteSpace=wrap;html=1;" vertex="1" parent="1">
          <mxGeometry x="510" y="673" width="110" height="40" as="geometry" />
        </mxCell>
        <mxCell id="mY9vQENjWqsLD0lPLEkr-75" style="edgeStyle=orthogonalEdgeStyle;rounded=0;orthogonalLoop=1;jettySize=auto;html=1;exitX=0.5;exitY=1;exitDx=0;exitDy=0;entryX=0.5;entryY=1;entryDx=0;entryDy=0;" edge="1" parent="1" source="mY9vQENjWqsLD0lPLEkr-55" target="mY9vQENjWqsLD0lPLEkr-57">
          <mxGeometry relative="1" as="geometry">
            <Array as="points">
              <mxPoint x="345" y="740" />
              <mxPoint x="60" y="740" />
              <mxPoint x="60" y="836" />
              <mxPoint x="125" y="836" />
            </Array>
          </mxGeometry>
        </mxCell>
        <mxCell id="mY9vQENjWqsLD0lPLEkr-55" value="&lt;p style=&quot;line-height:1.2;margin-top:0pt;margin-bottom:0pt;&quot; dir=&quot;ltr&quot;&gt;Book ID&lt;/p&gt;" style="rounded=0;whiteSpace=wrap;html=1;" vertex="1" parent="1">
          <mxGeometry x="290" y="673" width="110" height="40" as="geometry" />
        </mxCell>
        <mxCell id="mY9vQENjWqsLD0lPLEkr-56" value="&lt;p style=&quot;line-height:1.2;margin-top:0pt;margin-bottom:0pt;&quot; dir=&quot;ltr&quot;&gt;Transaction date&lt;/p&gt;&lt;p style=&quot;line-height:1.2;margin-top:0pt;margin-bottom:0pt;&quot; dir=&quot;ltr&quot;&gt;&lt;/p&gt;&lt;p id=&quot;docs-internal-guid-e298b9b5-7fff-69ab-5bfc-5583fb6fc646&quot; style=&quot;line-height:1.2;margin-top:0pt;margin-bottom:0pt;&quot; dir=&quot;ltr&quot;&gt;&lt;/p&gt;" style="rounded=0;whiteSpace=wrap;html=1;" vertex="1" parent="1">
          <mxGeometry x="400" y="673" width="110" height="40" as="geometry" />
        </mxCell>
        <mxCell id="mY9vQENjWqsLD0lPLEkr-57" value="&lt;p style=&quot;line-height:1.2;margin-top:0pt;margin-bottom:0pt;&quot; dir=&quot;ltr&quot;&gt;&lt;u&gt;Book ID&lt;/u&gt;&lt;/p&gt;" style="rounded=0;whiteSpace=wrap;html=1;" vertex="1" parent="1">
          <mxGeometry x="70" y="776" width="110" height="40" as="geometry" />
        </mxCell>
        <mxCell id="mY9vQENjWqsLD0lPLEkr-58" value="&lt;b&gt;BOOKS&lt;br&gt;&lt;/b&gt;" style="text;html=1;align=center;verticalAlign=middle;resizable=0;points=[];autosize=1;strokeColor=none;fillColor=none;" vertex="1" parent="1">
          <mxGeometry x="60" y="746" width="70" height="30" as="geometry" />
        </mxCell>
        <mxCell id="mY9vQENjWqsLD0lPLEkr-59" value="Title" style="rounded=0;whiteSpace=wrap;html=1;" vertex="1" parent="1">
          <mxGeometry x="180" y="776" width="110" height="40" as="geometry" />
        </mxCell>
        <mxCell id="mY9vQENjWqsLD0lPLEkr-60" value="Publisher" style="rounded=0;whiteSpace=wrap;html=1;" vertex="1" parent="1">
          <mxGeometry x="620" y="776" width="110" height="40" as="geometry" />
        </mxCell>
        <mxCell id="mY9vQENjWqsLD0lPLEkr-61" value="Publication date" style="rounded=0;whiteSpace=wrap;html=1;" vertex="1" parent="1">
          <mxGeometry x="730" y="776" width="110" height="40" as="geometry" />
        </mxCell>
        <mxCell id="mY9vQENjWqsLD0lPLEkr-62" value="Author" style="rounded=0;whiteSpace=wrap;html=1;" vertex="1" parent="1">
          <mxGeometry x="290" y="776" width="110" height="40" as="geometry" />
        </mxCell>
        <mxCell id="mY9vQENjWqsLD0lPLEkr-63" value="Description" style="rounded=0;whiteSpace=wrap;html=1;" vertex="1" parent="1">
          <mxGeometry x="400" y="776" width="110" height="40" as="geometry" />
        </mxCell>
        <mxCell id="mY9vQENjWqsLD0lPLEkr-69" value="Language" style="rounded=0;whiteSpace=wrap;html=1;" vertex="1" parent="1">
          <mxGeometry x="840" y="776" width="110" height="40" as="geometry" />
        </mxCell>
        <mxCell id="mY9vQENjWqsLD0lPLEkr-70" value="ISBN" style="rounded=0;whiteSpace=wrap;html=1;" vertex="1" parent="1">
          <mxGeometry x="510" y="776" width="110" height="40" as="geometry" />
        </mxCell>
        <mxCell id="mY9vQENjWqsLD0lPLEkr-71" value="Availability status" style="rounded=0;whiteSpace=wrap;html=1;" vertex="1" parent="1">
          <mxGeometry x="950" y="776" width="110" height="40" as="geometry" />
        </mxCell>
      </root>
    </mxGraphModel>
  </diagram>
</mxfile>
